<?xml version="1.0" encoding="iso-8859-1"?>
<!-- Uploaded to: SVG Repo, www.svgrepo.com, Generator: SVG Repo Mixer Tools -->
<svg fill="#000000" height="800px" width="800px" version="1.1" id="Capa_1" xmlns="http://www.w3.org/2000/svg" xmlns:xlink="http://www.w3.org/1999/xlink" 
	 viewBox="0 0 47.5 47.5" xml:space="preserve">
<g>
	<path d="M1.059,25.234c-0.276-0.35-0.498-0.703-0.668-1.071c7.97,3.167,15.81,4.225,22.735,4.225
		c12.747,0,22.377-3.582,23.979-4.216c-1.506,3.21-7.228,5.847-14.82,6.998c0.107,0.189,0.191,0.4,0.234,0.623h-8.271v0.83h8.271
		c-0.193,0.969-1.049,1.701-2.074,1.701h-10.97c-1.171,0-2.119-0.949-2.119-2.121c0-0.26,0.05-0.51,0.137-0.74
		c-3.508-0.377-6.695-1.062-9.359-1.973v0.127h-8.06L1.059,25.234z M0.08,23.245c0.002,0.001,0.004,0.001,0.006,0.002
		c0.043,0.203,0.097,0.405,0.172,0.603L0.08,23.245z M0.12,21.564c0.001-0.001,0.012-0.006,0.014-0.007
		c0.047-0.179,0.094-0.356,0.166-0.534L0.12,21.564z M47.066,23.422l0.18,0.417c0.166-0.443,0.254-0.898,0.254-1.354
		c0-0.497-0.102-0.985-0.295-1.461l-0.131,0.325c-23.616-9.492-46.479,0.016-46.94,0.207C0.055,21.863,0,22.169,0,22.485
		c0,0.257,0.033,0.511,0.086,0.762C23.825,32.784,46.841,23.518,47.066,23.422z M0.523,20.549c2.989-1.161,24.208-8.77,46.461,0.006
		c-2.271-4.21-11.824-7.38-23.235-7.38c-6.592,0-12.566,1.059-16.873,2.765H0.073l0.886,3.931
		C0.792,20.094,0.646,20.32,0.523,20.549z M0.523,20.55c-0.085,0.154-0.158,0.312-0.223,0.472C0.3,21.023,0.433,20.726,0.523,20.55z
		 M0.258,23.85c0.001,0,0.057,0.282,0.133,0.312C0.342,24.06,0.298,23.958,0.258,23.85z"/>
</g>
</svg>